<svg width="270" height="43" viewBox="0 0 270 43" fill="none" xmlns="http://www.w3.org/2000/svg">
<path d="M2.028 7.544V11H1.02V2.6H4.02C4.452 2.6 4.828 2.664 5.148 2.792C5.468 2.912 5.732 3.076 5.94 3.284C6.156 3.492 6.316 3.736 6.42 4.016C6.532 4.288 6.588 4.576 6.588 4.88V5.24C6.588 5.544 6.532 5.836 6.42 6.116C6.316 6.396 6.156 6.644 5.94 6.86C5.724 7.068 5.456 7.236 5.136 7.364C4.816 7.484 4.444 7.544 4.02 7.544H2.028ZM2.028 6.608H3.9C5.02 6.608 5.58 6.128 5.58 5.168V4.952C5.58 4.528 5.44 4.188 5.16 3.932C4.888 3.668 4.468 3.536 3.9 3.536H2.028V6.608ZM8.05566 5.048H10.2157V5.84H10.3597C10.5117 5.512 10.7277 5.272 11.0077 5.12C11.2877 4.96 11.6077 4.88 11.9677 4.88C12.5677 4.88 13.0517 5.076 13.4197 5.468C13.7877 5.86 13.9837 6.432 14.0077 7.184L13.0237 7.328C13.0237 6.776 12.8917 6.38 12.6277 6.14C12.3637 5.892 12.0397 5.768 11.6557 5.768C11.4077 5.768 11.1917 5.816 11.0077 5.912C10.8317 6.008 10.6837 6.14 10.5637 6.308C10.4437 6.476 10.3557 6.672 10.2997 6.896C10.2437 7.12 10.2157 7.36 10.2157 7.616V10.136H11.7277V11H7.91166V10.136H9.27966V5.912H8.05566V5.048ZM17.5873 3.272C17.5873 3.04 17.6673 2.844 17.8273 2.684C17.9953 2.516 18.1953 2.432 18.4273 2.432C18.6593 2.432 18.8553 2.516 19.0153 2.684C19.1833 2.844 19.2673 3.04 19.2673 3.272C19.2673 3.504 19.1833 3.704 19.0153 3.872C18.8553 4.032 18.6593 4.112 18.4273 4.112C18.1953 4.112 17.9953 4.032 17.8273 3.872C17.6673 3.704 17.5873 3.504 17.5873 3.272ZM15.8833 10.136H17.9713V5.912H16.0993V5.048H18.9073V10.136H20.8513V11H15.8833V10.136ZM28.655 8.888C28.591 9.216 28.479 9.52 28.319 9.8C28.167 10.08 27.971 10.324 27.731 10.532C27.491 10.732 27.211 10.888 26.891 11C26.571 11.112 26.215 11.168 25.823 11.168C25.407 11.168 25.011 11.1 24.635 10.964C24.267 10.828 23.943 10.632 23.663 10.376C23.383 10.112 23.159 9.792 22.991 9.416C22.831 9.04 22.751 8.608 22.751 8.12V7.976C22.751 7.496 22.831 7.064 22.991 6.68C23.159 6.296 23.383 5.972 23.663 5.708C23.943 5.444 24.267 5.24 24.635 5.096C25.011 4.952 25.407 4.88 25.823 4.88C26.199 4.88 26.547 4.936 26.867 5.048C27.187 5.16 27.467 5.32 27.707 5.528C27.955 5.728 28.155 5.968 28.307 6.248C28.467 6.528 28.575 6.832 28.631 7.16L27.695 7.376C27.671 7.168 27.611 6.968 27.515 6.776C27.427 6.576 27.303 6.404 27.143 6.26C26.991 6.108 26.803 5.988 26.579 5.9C26.355 5.812 26.095 5.768 25.799 5.768C25.511 5.768 25.239 5.824 24.983 5.936C24.735 6.04 24.515 6.192 24.323 6.392C24.131 6.584 23.979 6.816 23.867 7.088C23.763 7.36 23.711 7.656 23.711 7.976V8.12C23.711 8.456 23.763 8.76 23.867 9.032C23.979 9.296 24.131 9.52 24.323 9.704C24.515 9.888 24.739 10.032 24.995 10.136C25.251 10.232 25.527 10.28 25.823 10.28C26.119 10.28 26.375 10.236 26.591 10.148C26.815 10.052 27.003 9.932 27.155 9.788C27.315 9.636 27.439 9.464 27.527 9.272C27.623 9.08 27.687 8.88 27.719 8.672L28.655 8.888ZM31.1186 8.312C31.1426 8.904 31.3266 9.38 31.6706 9.74C32.0146 10.1 32.4946 10.28 33.1106 10.28C33.3906 10.28 33.6346 10.248 33.8426 10.184C34.0506 10.12 34.2266 10.032 34.3706 9.92C34.5226 9.808 34.6426 9.68 34.7306 9.536C34.8266 9.384 34.9026 9.224 34.9586 9.056L35.8466 9.296C35.6786 9.848 35.3666 10.3 34.9106 10.652C34.4626 10.996 33.8546 11.168 33.0866 11.168C32.6626 11.168 32.2706 11.096 31.9106 10.952C31.5586 10.8 31.2546 10.588 30.9986 10.316C30.7426 10.044 30.5426 9.72 30.3986 9.344C30.2546 8.968 30.1826 8.552 30.1826 8.096V7.808C30.1826 7.392 30.2546 7.004 30.3986 6.644C30.5506 6.284 30.7586 5.976 31.0226 5.72C31.2866 5.456 31.5946 5.252 31.9466 5.108C32.3066 4.956 32.6946 4.88 33.1106 4.88C33.5986 4.88 34.0186 4.972 34.3706 5.156C34.7306 5.332 35.0226 5.552 35.2466 5.816C35.4786 6.08 35.6466 6.368 35.7506 6.68C35.8626 6.992 35.9186 7.28 35.9186 7.544V8.312H31.1186ZM33.1106 5.768C32.8466 5.768 32.5986 5.812 32.3666 5.9C32.1426 5.98 31.9426 6.096 31.7666 6.248C31.5986 6.4 31.4586 6.58 31.3466 6.788C31.2426 6.988 31.1746 7.208 31.1426 7.448H34.9826C34.9666 7.192 34.9026 6.96 34.7906 6.752C34.6866 6.544 34.5466 6.368 34.3706 6.224C34.2026 6.08 34.0066 5.968 33.7826 5.888C33.5666 5.808 33.3426 5.768 33.1106 5.768Z" fill="#858584"/>
<path d="M4.304 36.752V27.392H4.112L2.272 31.6H0.944V31.504L3.04 26.8H5.648V36.752H8.816V38H1.136V36.752H4.304ZM13.5729 37.104C13.5729 36.7947 13.6795 36.5333 13.8929 36.32C14.1169 36.096 14.3835 35.984 14.6929 35.984C15.0022 35.984 15.2635 36.096 15.4769 36.32C15.7009 36.5333 15.8129 36.7947 15.8129 37.104C15.8129 37.4133 15.7009 37.68 15.4769 37.904C15.2635 38.1173 15.0022 38.224 14.6929 38.224C14.3835 38.224 14.1169 38.1173 13.8929 37.904C13.6795 37.68 13.5729 37.4133 13.5729 37.104ZM26.8418 30.064C26.8418 29.3707 26.6284 28.816 26.2018 28.4C25.7751 27.9733 25.1831 27.76 24.4258 27.76C24.0631 27.76 23.7271 27.824 23.4178 27.952C23.1191 28.08 22.8578 28.2667 22.6338 28.512C22.4204 28.7467 22.2498 29.0293 22.1218 29.36C22.0044 29.6907 21.9457 30.0533 21.9457 30.448V32.112H22.1378C22.3938 31.6427 22.7564 31.2747 23.2258 31.008C23.7058 30.7413 24.2391 30.608 24.8258 30.608C25.3378 30.608 25.8124 30.6933 26.2498 30.864C26.6871 31.024 27.0604 31.264 27.3698 31.584C27.6898 31.904 27.9351 32.2933 28.1058 32.752C28.2871 33.2 28.3778 33.712 28.3778 34.288V34.48C28.3778 35.0347 28.2764 35.5413 28.0738 36C27.8818 36.4587 27.6098 36.8533 27.2578 37.184C26.9164 37.5147 26.5058 37.7707 26.0258 37.952C25.5564 38.1333 25.0444 38.224 24.4898 38.224C23.9351 38.224 23.4178 38.1333 22.9378 37.952C22.4684 37.7707 22.0578 37.52 21.7057 37.2C21.3644 36.8693 21.0924 36.48 20.8898 36.032C20.6978 35.5733 20.6018 35.072 20.6018 34.528V30.448C20.6018 29.8613 20.7031 29.328 20.9058 28.848C21.1084 28.368 21.3858 27.9627 21.7378 27.632C22.0898 27.2907 22.4951 27.0293 22.9538 26.848C23.4231 26.6667 23.9244 26.576 24.4578 26.576C24.9911 26.576 25.4871 26.656 25.9458 26.816C26.4044 26.976 26.7991 27.2107 27.1298 27.52C27.4604 27.8187 27.7164 28.1867 27.8978 28.624C28.0898 29.0507 28.1858 29.5307 28.1858 30.064H26.8418ZM24.4898 37.04C24.8738 37.04 25.2204 36.9813 25.5298 36.864C25.8498 36.736 26.1218 36.56 26.3458 36.336C26.5698 36.112 26.7404 35.8453 26.8578 35.536C26.9751 35.2267 27.0338 34.8853 27.0338 34.512V34.32C27.0338 33.9467 26.9698 33.6053 26.8418 33.296C26.7138 32.9867 26.5378 32.72 26.3138 32.496C26.0898 32.272 25.8178 32.1013 25.4978 31.984C25.1884 31.856 24.8524 31.792 24.4898 31.792C24.1271 31.792 23.7911 31.856 23.4818 31.984C23.1724 32.112 22.9004 32.288 22.6658 32.512C22.4418 32.736 22.2658 32.9973 22.1378 33.296C22.0098 33.5947 21.9457 33.9147 21.9457 34.256V34.56C21.9457 34.912 22.0044 35.2427 22.1218 35.552C22.2391 35.8507 22.4098 36.112 22.6338 36.336C22.8578 36.56 23.1244 36.736 23.4338 36.864C23.7538 36.9813 24.1058 37.04 24.4898 37.04ZM33.1826 32.432V30.576L36.8306 28.24V28.048H30.4946V26.8H37.9826V28.848L34.3346 31.184V31.376H34.9746C35.4013 31.376 35.812 31.4453 36.2066 31.584C36.6013 31.7227 36.948 31.9253 37.2466 32.192C37.556 32.4587 37.8013 32.7893 37.9826 33.184C38.1746 33.568 38.2706 34.016 38.2706 34.528V34.816C38.2706 35.296 38.1746 35.744 37.9826 36.16C37.7906 36.576 37.524 36.9387 37.1826 37.248C36.8413 37.5467 36.436 37.7867 35.9666 37.968C35.508 38.1387 35.0066 38.224 34.4626 38.224C33.8333 38.224 33.268 38.128 32.7666 37.936C32.2653 37.744 31.8386 37.4827 31.4866 37.152C31.1346 36.8107 30.8626 36.416 30.6706 35.968C30.4893 35.5093 30.3986 35.024 30.3986 34.512V33.648H31.7426V34.416C31.7426 34.8213 31.8066 35.184 31.9346 35.504C32.0733 35.8133 32.26 36.08 32.4946 36.304C32.74 36.5173 33.028 36.6827 33.3586 36.8C33.6893 36.9173 34.0466 36.976 34.4306 36.976C34.7826 36.976 35.108 36.9173 35.4066 36.8C35.716 36.6827 35.9826 36.5227 36.2066 36.32C36.4306 36.1067 36.6066 35.8613 36.7346 35.584C36.8626 35.296 36.9266 34.992 36.9266 34.672V34.576C36.9266 33.904 36.7133 33.3813 36.2866 33.008C35.86 32.624 35.3266 32.432 34.6866 32.432H33.1826ZM50.4884 26.8H57.2724V28.048H51.8324V31.76H57.1764V33.008H51.8324V36.752H57.3684V38H50.4884V26.8ZM59.7413 26.8H67.6133V28.048H64.3493V38H63.0052V28.048H59.7413V26.8ZM69.7461 26.8H71.0901V31.76H75.8581V26.8H77.2021V38H75.8581V33.008H71.0901V38H69.7461V26.8Z" fill="white"/>
<path d="M190.052 2.6H191.06V6.32H194.636V2.6H195.644V11H194.636V7.256H191.06V11H190.052V2.6ZM199.415 3.272C199.415 3.04 199.495 2.844 199.655 2.684C199.823 2.516 200.023 2.432 200.255 2.432C200.487 2.432 200.683 2.516 200.843 2.684C201.011 2.844 201.095 3.04 201.095 3.272C201.095 3.504 201.011 3.704 200.843 3.872C200.683 4.032 200.487 4.112 200.255 4.112C200.023 4.112 199.823 4.032 199.655 3.872C199.495 3.704 199.415 3.504 199.415 3.272ZM197.711 10.136H199.799V5.912H197.927V5.048H200.735V10.136H202.679V11H197.711V10.136ZM209.439 10.088H209.295C209.103 10.448 208.839 10.72 208.503 10.904C208.175 11.08 207.815 11.168 207.423 11.168C207.023 11.168 206.647 11.1 206.295 10.964C205.943 10.828 205.631 10.632 205.359 10.376C205.095 10.12 204.883 9.804 204.723 9.428C204.571 9.044 204.495 8.608 204.495 8.12V7.928C204.495 7.448 204.575 7.02 204.735 6.644C204.895 6.26 205.107 5.94 205.371 5.684C205.635 5.42 205.943 5.22 206.295 5.084C206.647 4.948 207.015 4.88 207.399 4.88C207.831 4.88 208.207 4.976 208.527 5.168C208.855 5.352 209.111 5.624 209.295 5.984H209.439V5.048H210.375V12.464C210.375 12.736 210.287 12.96 210.111 13.136C209.943 13.312 209.723 13.4 209.451 13.4H205.575V12.536H209.115C209.331 12.536 209.439 12.416 209.439 12.176V10.088ZM207.447 10.28C207.727 10.28 207.987 10.228 208.227 10.124C208.467 10.02 208.675 9.872 208.851 9.68C209.035 9.488 209.179 9.26 209.283 8.996C209.387 8.724 209.439 8.424 209.439 8.096V7.952C209.439 7.632 209.387 7.34 209.283 7.076C209.179 6.804 209.035 6.572 208.851 6.38C208.675 6.188 208.463 6.04 208.215 5.936C207.975 5.824 207.719 5.768 207.447 5.768C207.167 5.768 206.903 5.82 206.655 5.924C206.415 6.028 206.203 6.176 206.019 6.368C205.843 6.56 205.703 6.788 205.599 7.052C205.503 7.316 205.455 7.608 205.455 7.928V8.12C205.455 8.456 205.503 8.756 205.599 9.02C205.703 9.284 205.843 9.512 206.019 9.704C206.203 9.888 206.415 10.032 206.655 10.136C206.895 10.232 207.159 10.28 207.447 10.28ZM213.199 11H212.263V2.6H213.199V6.128H213.343C213.527 5.744 213.783 5.44 214.111 5.216C214.447 4.992 214.855 4.88 215.335 4.88C215.983 4.88 216.507 5.096 216.907 5.528C217.315 5.952 217.519 6.592 217.519 7.448V11H216.583V7.64C216.583 7.016 216.443 6.548 216.163 6.236C215.883 5.924 215.503 5.768 215.023 5.768C214.455 5.768 214.007 5.964 213.679 6.356C213.359 6.74 213.199 7.256 213.199 7.904V11ZM220.294 8.312C220.318 8.904 220.502 9.38 220.846 9.74C221.19 10.1 221.67 10.28 222.286 10.28C222.566 10.28 222.81 10.248 223.018 10.184C223.226 10.12 223.402 10.032 223.546 9.92C223.698 9.808 223.818 9.68 223.906 9.536C224.002 9.384 224.078 9.224 224.134 9.056L225.022 9.296C224.854 9.848 224.542 10.3 224.086 10.652C223.638 10.996 223.03 11.168 222.262 11.168C221.838 11.168 221.446 11.096 221.086 10.952C220.734 10.8 220.43 10.588 220.174 10.316C219.918 10.044 219.718 9.72 219.574 9.344C219.43 8.968 219.358 8.552 219.358 8.096V7.808C219.358 7.392 219.43 7.004 219.574 6.644C219.726 6.284 219.934 5.976 220.198 5.72C220.462 5.456 220.77 5.252 221.122 5.108C221.482 4.956 221.87 4.88 222.286 4.88C222.774 4.88 223.194 4.972 223.546 5.156C223.906 5.332 224.198 5.552 224.422 5.816C224.654 6.08 224.822 6.368 224.926 6.68C225.038 6.992 225.094 7.28 225.094 7.544V8.312H220.294ZM222.286 5.768C222.022 5.768 221.774 5.812 221.542 5.9C221.318 5.98 221.118 6.096 220.942 6.248C220.774 6.4 220.634 6.58 220.522 6.788C220.418 6.988 220.35 7.208 220.318 7.448H224.158C224.142 7.192 224.078 6.96 223.966 6.752C223.862 6.544 223.722 6.368 223.546 6.224C223.378 6.08 223.182 5.968 222.958 5.888C222.742 5.808 222.518 5.768 222.286 5.768ZM228.194 6.584C228.194 6.872 228.314 7.092 228.554 7.244C228.802 7.396 229.25 7.496 229.898 7.544C230.594 7.6 231.122 7.768 231.482 8.048C231.85 8.32 232.034 8.72 232.034 9.248V9.32C232.034 9.608 231.974 9.868 231.854 10.1C231.742 10.324 231.582 10.516 231.374 10.676C231.174 10.836 230.926 10.956 230.63 11.036C230.342 11.124 230.026 11.168 229.682 11.168C229.218 11.168 228.818 11.108 228.482 10.988C228.154 10.86 227.878 10.696 227.654 10.496C227.438 10.288 227.274 10.056 227.162 9.8C227.05 9.536 226.986 9.272 226.97 9.008L227.858 8.792C227.898 9.248 228.074 9.616 228.386 9.896C228.698 10.168 229.114 10.304 229.634 10.304C230.074 10.304 230.426 10.22 230.69 10.052C230.962 9.876 231.098 9.632 231.098 9.32C231.098 8.984 230.966 8.744 230.702 8.6C230.438 8.456 230.01 8.364 229.418 8.324C228.73 8.276 228.202 8.116 227.834 7.844C227.466 7.572 227.282 7.176 227.282 6.656V6.584C227.282 6.304 227.342 6.06 227.462 5.852C227.582 5.636 227.742 5.456 227.942 5.312C228.15 5.168 228.382 5.06 228.638 4.988C228.894 4.916 229.162 4.88 229.442 4.88C229.834 4.88 230.178 4.936 230.474 5.048C230.77 5.152 231.018 5.292 231.218 5.468C231.418 5.636 231.57 5.832 231.674 6.056C231.786 6.28 231.858 6.504 231.89 6.728L231.002 6.944C230.962 6.56 230.806 6.26 230.534 6.044C230.27 5.828 229.922 5.72 229.49 5.72C229.322 5.72 229.158 5.74 228.998 5.78C228.846 5.812 228.71 5.864 228.59 5.936C228.47 6.008 228.374 6.1 228.302 6.212C228.23 6.316 228.194 6.44 228.194 6.584ZM234.102 5.048H235.974V2.6H236.91V5.048H239.214V5.912H236.91V9.776C236.91 10.016 237.018 10.136 237.234 10.136H238.926V11H236.898C236.626 11 236.402 10.912 236.226 10.736C236.058 10.56 235.974 10.336 235.974 10.064V5.912H234.102V5.048ZM248.641 10.064H249.361V3.536H248.641V2.6H252.037C252.437 2.6 252.789 2.656 253.093 2.768C253.405 2.88 253.665 3.032 253.873 3.224C254.089 3.416 254.249 3.648 254.353 3.92C254.465 4.184 254.521 4.472 254.521 4.784V4.928C254.521 5.16 254.485 5.372 254.413 5.564C254.341 5.756 254.241 5.928 254.113 6.08C253.985 6.232 253.833 6.364 253.657 6.476C253.489 6.58 253.305 6.66 253.105 6.716V6.86C253.505 6.972 253.841 7.188 254.113 7.508C254.385 7.82 254.521 8.204 254.521 8.66V8.804C254.521 9.116 254.465 9.408 254.353 9.68C254.249 9.944 254.089 10.176 253.873 10.376C253.665 10.568 253.405 10.72 253.093 10.832C252.789 10.944 252.437 11 252.037 11H248.641V10.064ZM250.369 10.064H251.965C252.437 10.064 252.821 9.948 253.117 9.716C253.413 9.476 253.561 9.148 253.561 8.732V8.66C253.561 8.228 253.421 7.888 253.141 7.64C252.861 7.384 252.481 7.256 252.001 7.256H250.369V10.064ZM250.369 6.32H252.001C252.481 6.32 252.861 6.196 253.141 5.948C253.421 5.7 253.561 5.36 253.561 4.928V4.856C253.561 4.448 253.413 4.128 253.117 3.896C252.821 3.656 252.437 3.536 251.965 3.536H250.369V6.32ZM258.197 3.272C258.197 3.04 258.277 2.844 258.437 2.684C258.605 2.516 258.805 2.432 259.037 2.432C259.269 2.432 259.465 2.516 259.625 2.684C259.793 2.844 259.877 3.04 259.877 3.272C259.877 3.504 259.793 3.704 259.625 3.872C259.465 4.032 259.269 4.112 259.037 4.112C258.805 4.112 258.605 4.032 258.437 3.872C258.277 3.704 258.197 3.504 258.197 3.272ZM256.493 10.136H258.581V5.912H256.709V5.048H259.517V10.136H261.461V11H256.493V10.136ZM268.304 10.088H268.16C268.064 10.272 267.94 10.432 267.788 10.568C267.644 10.704 267.484 10.816 267.308 10.904C267.14 10.992 266.96 11.056 266.768 11.096C266.576 11.144 266.392 11.168 266.216 11.168C265.816 11.168 265.444 11.1 265.1 10.964C264.756 10.828 264.452 10.632 264.188 10.376C263.932 10.12 263.728 9.804 263.576 9.428C263.432 9.044 263.36 8.608 263.36 8.12V7.928C263.36 7.448 263.436 7.02 263.588 6.644C263.74 6.26 263.944 5.94 264.2 5.684C264.456 5.42 264.756 5.22 265.1 5.084C265.444 4.948 265.808 4.88 266.192 4.88C266.6 4.88 266.98 4.972 267.332 5.156C267.692 5.332 267.968 5.608 268.16 5.984H268.304V2.6H269.24V11H268.304V10.088ZM266.312 10.28C266.592 10.28 266.852 10.228 267.092 10.124C267.332 10.02 267.54 9.872 267.716 9.68C267.9 9.488 268.044 9.26 268.148 8.996C268.252 8.724 268.304 8.424 268.304 8.096V7.952C268.304 7.632 268.252 7.34 268.148 7.076C268.044 6.804 267.9 6.572 267.716 6.38C267.54 6.188 267.328 6.04 267.08 5.936C266.84 5.824 266.584 5.768 266.312 5.768C266.032 5.768 265.768 5.82 265.52 5.924C265.28 6.028 265.068 6.176 264.884 6.368C264.708 6.56 264.568 6.788 264.464 7.052C264.368 7.316 264.32 7.608 264.32 7.928V8.12C264.32 8.456 264.368 8.756 264.464 9.02C264.568 9.284 264.708 9.512 264.884 9.704C265.068 9.888 265.28 10.032 265.52 10.136C265.76 10.232 266.024 10.28 266.312 10.28Z" fill="#858584"/>
<path d="M182.788 31.152C182.788 29.7013 183.135 28.576 183.828 27.776C184.521 26.976 185.487 26.576 186.724 26.576C187.961 26.576 188.927 26.976 189.62 27.776C190.313 28.576 190.66 29.7013 190.66 31.152V33.648C190.66 35.1413 190.313 36.2773 189.62 37.056C188.927 37.8347 187.961 38.224 186.724 38.224C185.487 38.224 184.521 37.8347 183.828 37.056C183.135 36.2773 182.788 35.1413 182.788 33.648V31.152ZM186.724 37.008C187.588 37.008 188.233 36.7093 188.66 36.112C189.097 35.504 189.316 34.6507 189.316 33.552V31.248C189.316 30.736 189.263 30.272 189.156 29.856C189.049 29.4293 188.884 29.0667 188.66 28.768C188.447 28.4587 188.175 28.2187 187.844 28.048C187.524 27.8773 187.151 27.792 186.724 27.792C186.287 27.792 185.908 27.8773 185.588 28.048C185.268 28.2187 184.996 28.4587 184.772 28.768C184.559 29.0667 184.399 29.4293 184.292 29.856C184.185 30.272 184.132 30.736 184.132 31.248V33.552C184.132 34.6507 184.345 35.504 184.772 36.112C185.209 36.7093 185.86 37.008 186.724 37.008ZM185.7 32.4C185.7 32.1227 185.801 31.8827 186.004 31.68C186.207 31.4773 186.447 31.376 186.724 31.376C187.001 31.376 187.241 31.4773 187.444 31.68C187.647 31.8827 187.748 32.1227 187.748 32.4C187.748 32.6773 187.647 32.9173 187.444 33.12C187.241 33.3227 187.001 33.424 186.724 33.424C186.447 33.424 186.207 33.3227 186.004 33.12C185.801 32.9173 185.7 32.6773 185.7 32.4ZM195.401 37.104C195.401 36.7947 195.508 36.5333 195.721 36.32C195.945 36.096 196.212 35.984 196.521 35.984C196.83 35.984 197.092 36.096 197.305 36.32C197.529 36.5333 197.641 36.7947 197.641 37.104C197.641 37.4133 197.529 37.68 197.305 37.904C197.092 38.1173 196.83 38.224 196.521 38.224C196.212 38.224 195.945 38.1173 195.721 37.904C195.508 37.68 195.401 37.4133 195.401 37.104ZM205.214 32.432V30.576L208.862 28.24V28.048H202.526V26.8H210.014V28.848L206.366 31.184V31.376H207.006C207.433 31.376 207.843 31.4453 208.238 31.584C208.633 31.7227 208.979 31.9253 209.278 32.192C209.587 32.4587 209.833 32.7893 210.014 33.184C210.206 33.568 210.302 34.016 210.302 34.528V34.816C210.302 35.296 210.206 35.744 210.014 36.16C209.822 36.576 209.555 36.9387 209.214 37.248C208.873 37.5467 208.467 37.7867 207.998 37.968C207.539 38.1387 207.038 38.224 206.494 38.224C205.865 38.224 205.299 38.128 204.798 37.936C204.297 37.744 203.87 37.4827 203.518 37.152C203.166 36.8107 202.894 36.416 202.702 35.968C202.521 35.5093 202.43 35.024 202.43 34.512V33.648H203.774V34.416C203.774 34.8213 203.838 35.184 203.966 35.504C204.105 35.8133 204.291 36.08 204.526 36.304C204.771 36.5173 205.059 36.6827 205.39 36.8C205.721 36.9173 206.078 36.976 206.462 36.976C206.814 36.976 207.139 36.9173 207.438 36.8C207.747 36.6827 208.014 36.5227 208.238 36.32C208.462 36.1067 208.638 35.8613 208.766 35.584C208.894 35.296 208.958 34.992 208.958 34.672V34.576C208.958 33.904 208.745 33.3813 208.318 33.008C207.891 32.624 207.358 32.432 206.718 32.432H205.214ZM215.011 32.432V30.576L218.659 28.24V28.048H212.323V26.8H219.811V28.848L216.163 31.184V31.376H216.803C217.229 31.376 217.64 31.4453 218.035 31.584C218.429 31.7227 218.776 31.9253 219.075 32.192C219.384 32.4587 219.629 32.7893 219.811 33.184C220.003 33.568 220.099 34.016 220.099 34.528V34.816C220.099 35.296 220.003 35.744 219.811 36.16C219.619 36.576 219.352 36.9387 219.011 37.248C218.669 37.5467 218.264 37.7867 217.795 37.968C217.336 38.1387 216.835 38.224 216.291 38.224C215.661 38.224 215.096 38.128 214.595 37.936C214.093 37.744 213.667 37.4827 213.315 37.152C212.963 36.8107 212.691 36.416 212.499 35.968C212.317 35.5093 212.227 35.024 212.227 34.512V33.648H213.571V34.416C213.571 34.8213 213.635 35.184 213.763 35.504C213.901 35.8133 214.088 36.08 214.323 36.304C214.568 36.5173 214.856 36.6827 215.187 36.8C215.517 36.9173 215.875 36.976 216.259 36.976C216.611 36.976 216.936 36.9173 217.235 36.8C217.544 36.6827 217.811 36.5227 218.035 36.32C218.259 36.1067 218.435 35.8613 218.563 35.584C218.691 35.296 218.755 34.992 218.755 34.672V34.576C218.755 33.904 218.541 33.3813 218.115 33.008C217.688 32.624 217.155 32.432 216.515 32.432H215.011ZM239.069 38H236.765L235.805 30.64H235.613L234.653 38H232.349L231.101 30.064H232.381L233.437 37.424H233.629L234.557 30.064H236.861L237.789 37.424H237.981L239.036 30.064H240.317L239.069 38ZM242.113 26.8H248.897V28.048H243.457V31.76H248.801V33.008H243.457V36.752H248.993V38H242.113V26.8ZM251.366 26.8H259.238V28.048H255.974V38H254.63V28.048H251.366V26.8ZM261.371 26.8H262.715V31.76H267.483V26.8H268.827V38H267.483V33.008H262.715V38H261.371V26.8Z" fill="white"/>
</svg>
