<svg width="235" height="63" viewBox="0 0 235 63" fill="none" xmlns="http://www.w3.org/2000/svg">
<path d="M2.508 25.144V10.4H20.292V15.188H7.524V22.408H8.208C8.56267 21.42 9.22133 20.5713 10.184 19.862C11.172 19.1273 12.4893 18.76 14.136 18.76C15.3773 18.76 16.492 18.9753 17.48 19.406C18.468 19.8367 19.304 20.432 19.988 21.192C20.672 21.952 21.1913 22.864 21.546 23.928C21.926 24.992 22.116 26.1573 22.116 27.424V27.652C22.116 28.9947 21.888 30.2613 21.432 31.452C21.0013 32.6427 20.3553 33.694 19.494 34.606C18.658 35.4927 17.6193 36.202 16.378 36.734C15.1367 37.266 13.7053 37.532 12.084 37.532C10.4627 37.532 9.03133 37.3167 7.79 36.886C6.54867 36.43 5.49733 35.8093 4.636 35.024C3.8 34.2133 3.154 33.2633 2.698 32.174C2.26733 31.0593 2.052 29.856 2.052 28.564V27.652H7.068V28.108C7.068 29.4507 7.47333 30.5653 8.284 31.452C9.12 32.3133 10.336 32.744 11.932 32.744C13.528 32.744 14.782 32.3133 15.694 31.452C16.6313 30.5907 17.1 29.4 17.1 27.88C17.1 26.436 16.758 25.3593 16.074 24.65C15.39 23.9153 14.4907 23.548 13.376 23.548C12.6413 23.548 12.046 23.7127 11.59 24.042C11.134 24.346 10.8427 24.7133 10.716 25.144H2.508ZM30.9056 29.476C30.9056 30.3627 31.2222 31.1353 31.8556 31.794C32.5142 32.4273 33.5276 32.744 34.8956 32.744C36.2636 32.744 37.3402 32.3513 38.1256 31.566C38.9362 30.7553 39.3416 29.704 39.3416 28.412V24.992H38.6576C38.3029 25.8787 37.7202 26.6007 36.9096 27.158C36.0989 27.69 34.9462 27.956 33.4516 27.956C32.3116 27.956 31.2476 27.7533 30.2596 27.348C29.2969 26.9173 28.4482 26.322 27.7136 25.562C27.0042 24.802 26.4469 23.89 26.0416 22.826C25.6362 21.762 25.4336 20.584 25.4336 19.292V18.836C25.4336 17.5693 25.6616 16.3913 26.1176 15.302C26.5736 14.1873 27.2069 13.2373 28.0176 12.452C28.8536 11.6413 29.8542 11.008 31.0196 10.552C32.2102 10.096 33.5276 9.868 34.9716 9.868C36.2889 9.868 37.5176 10.0833 38.6576 10.514C39.8229 10.9447 40.8236 11.5527 41.6596 12.338C42.4956 13.098 43.1542 14.0227 43.6356 15.112C44.1169 16.176 44.3576 17.354 44.3576 18.646V28.336C44.3576 29.78 44.1169 31.072 43.6356 32.212C43.1542 33.352 42.4956 34.3147 41.6596 35.1C40.8236 35.8853 39.8356 36.4933 38.6956 36.924C37.5809 37.3293 36.3649 37.532 35.0476 37.532C33.7556 37.532 32.5522 37.3547 31.4376 37C30.3229 36.62 29.3476 36.088 28.5116 35.404C27.7009 34.6947 27.0549 33.846 26.5736 32.858C26.1176 31.87 25.8896 30.7427 25.8896 29.476H30.9056ZM34.8956 14.656C33.6036 14.656 32.5396 15.0487 31.7036 15.834C30.8676 16.594 30.4496 17.62 30.4496 18.912C30.4496 20.204 30.8676 21.2427 31.7036 22.028C32.5396 22.788 33.6036 23.168 34.8956 23.168C36.1876 23.168 37.2516 22.788 38.0876 22.028C38.9236 21.2427 39.3416 20.204 39.3416 18.912C39.3416 17.62 38.9236 16.594 38.0876 15.834C37.2516 15.0487 36.1876 14.656 34.8956 14.656Z" fill="white"/>
<path d="M0.876 53.6H1.884V57.32H5.46V53.6H6.468V62H5.46V58.256H1.884V62H0.876V53.6ZM14.0077 59.096C14.0077 59.592 13.9237 60.032 13.7557 60.416C13.5957 60.792 13.3797 61.112 13.1077 61.376C12.8357 61.632 12.5157 61.828 12.1477 61.964C11.7877 62.1 11.4117 62.168 11.0197 62.168C10.6197 62.168 10.2397 62.1 9.87966 61.964C9.51966 61.828 9.20366 61.632 8.93166 61.376C8.65966 61.112 8.43966 60.792 8.27166 60.416C8.11166 60.032 8.03166 59.592 8.03166 59.096V58.952C8.03166 58.464 8.11166 58.032 8.27166 57.656C8.43966 57.272 8.65966 56.948 8.93166 56.684C9.21166 56.42 9.53166 56.22 9.89166 56.084C10.2517 55.948 10.6277 55.88 11.0197 55.88C11.4117 55.88 11.7877 55.948 12.1477 56.084C12.5077 56.22 12.8237 56.42 13.0957 56.684C13.3757 56.948 13.5957 57.272 13.7557 57.656C13.9237 58.032 14.0077 58.464 14.0077 58.952V59.096ZM11.0197 61.28C11.3077 61.28 11.5717 61.232 11.8117 61.136C12.0597 61.032 12.2757 60.884 12.4597 60.692C12.6437 60.5 12.7877 60.272 12.8917 60.008C12.9957 59.736 13.0477 59.432 13.0477 59.096V58.952C13.0477 58.632 12.9957 58.34 12.8917 58.076C12.7877 57.804 12.6437 57.572 12.4597 57.38C12.2757 57.188 12.0597 57.04 11.8117 56.936C11.5637 56.824 11.2997 56.768 11.0197 56.768C10.7397 56.768 10.4757 56.824 10.2277 56.936C9.97966 57.04 9.76366 57.188 9.57966 57.38C9.39566 57.572 9.25166 57.804 9.14766 58.076C9.04366 58.34 8.99166 58.632 8.99166 58.952V59.096C8.99166 59.432 9.04366 59.736 9.14766 60.008C9.25166 60.272 9.39566 60.5 9.57966 60.692C9.76366 60.884 9.97566 61.032 10.2157 61.136C10.4637 61.232 10.7317 61.28 11.0197 61.28ZM19.9873 56.048H20.9233V62H19.9873V60.92H19.8433C19.6513 61.304 19.3993 61.608 19.0873 61.832C18.7753 62.056 18.3793 62.168 17.8993 62.168C17.5713 62.168 17.2673 62.112 16.9873 62C16.7153 61.896 16.4793 61.736 16.2793 61.52C16.0873 61.304 15.9353 61.036 15.8233 60.716C15.7193 60.396 15.6673 60.024 15.6673 59.6V56.048H16.6033V59.48C16.6033 60.104 16.7313 60.56 16.9873 60.848C17.2433 61.136 17.6353 61.28 18.1633 61.28C18.7313 61.28 19.1753 61.088 19.4953 60.704C19.8233 60.312 19.9873 59.792 19.9873 59.144V56.048ZM22.751 56.048H24.911V56.84H25.055C25.207 56.512 25.423 56.272 25.703 56.12C25.983 55.96 26.303 55.88 26.663 55.88C27.263 55.88 27.747 56.076 28.115 56.468C28.483 56.86 28.679 57.432 28.703 58.184L27.719 58.328C27.719 57.776 27.587 57.38 27.323 57.14C27.059 56.892 26.735 56.768 26.351 56.768C26.103 56.768 25.887 56.816 25.703 56.912C25.527 57.008 25.379 57.14 25.259 57.308C25.139 57.476 25.051 57.672 24.995 57.896C24.939 58.12 24.911 58.36 24.911 58.616V61.136H26.423V62H22.607V61.136H23.975V56.912H22.751V56.048ZM31.6706 57.584C31.6706 57.872 31.7906 58.092 32.0306 58.244C32.2786 58.396 32.7266 58.496 33.3746 58.544C34.0706 58.6 34.5986 58.768 34.9586 59.048C35.3266 59.32 35.5106 59.72 35.5106 60.248V60.32C35.5106 60.608 35.4506 60.868 35.3306 61.1C35.2186 61.324 35.0586 61.516 34.8506 61.676C34.6506 61.836 34.4026 61.956 34.1066 62.036C33.8186 62.124 33.5026 62.168 33.1586 62.168C32.6946 62.168 32.2946 62.108 31.9586 61.988C31.6306 61.86 31.3546 61.696 31.1306 61.496C30.9146 61.288 30.7506 61.056 30.6386 60.8C30.5266 60.536 30.4626 60.272 30.4466 60.008L31.3346 59.792C31.3746 60.248 31.5506 60.616 31.8626 60.896C32.1746 61.168 32.5906 61.304 33.1106 61.304C33.5506 61.304 33.9026 61.22 34.1666 61.052C34.4386 60.876 34.5746 60.632 34.5746 60.32C34.5746 59.984 34.4426 59.744 34.1786 59.6C33.9146 59.456 33.4866 59.364 32.8946 59.324C32.2066 59.276 31.6786 59.116 31.3106 58.844C30.9426 58.572 30.7586 58.176 30.7586 57.656V57.584C30.7586 57.304 30.8186 57.06 30.9386 56.852C31.0586 56.636 31.2186 56.456 31.4186 56.312C31.6266 56.168 31.8586 56.06 32.1146 55.988C32.3706 55.916 32.6386 55.88 32.9186 55.88C33.3106 55.88 33.6546 55.936 33.9506 56.048C34.2466 56.152 34.4946 56.292 34.6946 56.468C34.8946 56.636 35.0466 56.832 35.1506 57.056C35.2626 57.28 35.3346 57.504 35.3666 57.728L34.4786 57.944C34.4386 57.56 34.2826 57.26 34.0106 57.044C33.7466 56.828 33.3986 56.72 32.9666 56.72C32.7986 56.72 32.6346 56.74 32.4746 56.78C32.3226 56.812 32.1866 56.864 32.0666 56.936C31.9466 57.008 31.8506 57.1 31.7786 57.212C31.7066 57.316 31.6706 57.44 31.6706 57.584Z" fill="white"/>
<path d="M74.228 27.732C74.228 28.1053 74.1533 28.46 74.004 28.796C73.8733 29.1133 73.6867 29.3933 73.444 29.636C73.2013 29.86 72.912 30.0373 72.576 30.168C72.2587 30.3173 71.9227 30.392 71.568 30.392C71.1947 30.392 70.8493 30.3173 70.532 30.168C70.2147 30.0373 69.9347 29.86 69.692 29.636C69.4493 29.3933 69.2533 29.1133 69.104 28.796C68.9733 28.46 68.908 28.1053 68.908 27.732C68.908 27.3587 68.9733 27.0133 69.104 26.696C69.2533 26.36 69.4493 26.08 69.692 25.856C69.9347 25.6133 70.2147 25.4267 70.532 25.296C70.8493 25.1467 71.1947 25.072 71.568 25.072C71.9227 25.072 72.2587 25.1467 72.576 25.296C72.912 25.4267 73.2013 25.6133 73.444 25.856C73.6867 26.08 73.8733 26.36 74.004 26.696C74.1533 27.0133 74.228 27.3587 74.228 27.732ZM74.228 18.38C74.228 18.7533 74.1533 19.108 74.004 19.444C73.8733 19.7613 73.6867 20.0413 73.444 20.284C73.2013 20.508 72.912 20.6947 72.576 20.844C72.2587 20.9747 71.9227 21.04 71.568 21.04C71.1947 21.04 70.8493 20.9747 70.532 20.844C70.2147 20.6947 69.9347 20.508 69.692 20.284C69.4493 20.0413 69.2533 19.7613 69.104 19.444C68.9733 19.108 68.908 18.7533 68.908 18.38C68.908 18.0067 68.9733 17.6613 69.104 17.344C69.2533 17.008 69.4493 16.728 69.692 16.504C69.9347 16.2613 70.2147 16.0747 70.532 15.944C70.8493 15.7947 71.1947 15.72 71.568 15.72C71.9227 15.72 72.2587 15.7947 72.576 15.944C72.912 16.0747 73.2013 16.2613 73.444 16.504C73.6867 16.728 73.8733 17.008 74.004 17.344C74.1533 17.6613 74.228 18.0067 74.228 18.38Z" fill="white"/>
<path d="M93.508 25.144V10.4H111.292V15.188H98.524V22.408H99.208C99.5627 21.42 100.221 20.5713 101.184 19.862C102.172 19.1273 103.489 18.76 105.136 18.76C106.377 18.76 107.492 18.9753 108.48 19.406C109.468 19.8367 110.304 20.432 110.988 21.192C111.672 21.952 112.191 22.864 112.546 23.928C112.926 24.992 113.116 26.1573 113.116 27.424V27.652C113.116 28.9947 112.888 30.2613 112.432 31.452C112.001 32.6427 111.355 33.694 110.494 34.606C109.658 35.4927 108.619 36.202 107.378 36.734C106.137 37.266 104.705 37.532 103.084 37.532C101.463 37.532 100.031 37.3167 98.79 36.886C97.5487 36.43 96.4973 35.8093 95.636 35.024C94.8 34.2133 94.154 33.2633 93.698 32.174C93.2673 31.0593 93.052 29.856 93.052 28.564V27.652H98.068V28.108C98.068 29.4507 98.4733 30.5653 99.284 31.452C100.12 32.3133 101.336 32.744 102.932 32.744C104.528 32.744 105.782 32.3133 106.694 31.452C107.631 30.5907 108.1 29.4 108.1 27.88C108.1 26.436 107.758 25.3593 107.074 24.65C106.39 23.9153 105.491 23.548 104.376 23.548C103.641 23.548 103.046 23.7127 102.59 24.042C102.134 24.346 101.843 24.7133 101.716 25.144H93.508ZM121.906 29.476C121.906 30.3627 122.222 31.1353 122.856 31.794C123.514 32.4273 124.528 32.744 125.896 32.744C127.264 32.744 128.34 32.3513 129.126 31.566C129.936 30.7553 130.342 29.704 130.342 28.412V24.992H129.658C129.303 25.8787 128.72 26.6007 127.91 27.158C127.099 27.69 125.946 27.956 124.452 27.956C123.312 27.956 122.248 27.7533 121.26 27.348C120.297 26.9173 119.448 26.322 118.714 25.562C118.004 24.802 117.447 23.89 117.042 22.826C116.636 21.762 116.434 20.584 116.434 19.292V18.836C116.434 17.5693 116.662 16.3913 117.118 15.302C117.574 14.1873 118.207 13.2373 119.018 12.452C119.854 11.6413 120.854 11.008 122.02 10.552C123.21 10.096 124.528 9.868 125.972 9.868C127.289 9.868 128.518 10.0833 129.658 10.514C130.823 10.9447 131.824 11.5527 132.66 12.338C133.496 13.098 134.154 14.0227 134.636 15.112C135.117 16.176 135.358 17.354 135.358 18.646V28.336C135.358 29.78 135.117 31.072 134.636 32.212C134.154 33.352 133.496 34.3147 132.66 35.1C131.824 35.8853 130.836 36.4933 129.696 36.924C128.581 37.3293 127.365 37.532 126.048 37.532C124.756 37.532 123.552 37.3547 122.438 37C121.323 36.62 120.348 36.088 119.512 35.404C118.701 34.6947 118.055 33.846 117.574 32.858C117.118 31.87 116.89 30.7427 116.89 29.476H121.906ZM125.896 14.656C124.604 14.656 123.54 15.0487 122.704 15.834C121.868 16.594 121.45 17.62 121.45 18.912C121.45 20.204 121.868 21.2427 122.704 22.028C123.54 22.788 124.604 23.168 125.896 23.168C127.188 23.168 128.252 22.788 129.088 22.028C129.924 21.2427 130.342 20.204 130.342 18.912C130.342 17.62 129.924 16.594 129.088 15.834C128.252 15.0487 127.188 14.656 125.896 14.656Z" fill="white"/>
<path d="M91.552 53.6H93.472L94.6 61.568H94.744L95.872 53.6H97.792V62H96.856V54.032H96.712L95.584 62H93.76L92.632 54.032H92.488V62H91.552V53.6ZM101.24 54.272C101.24 54.04 101.32 53.844 101.48 53.684C101.648 53.516 101.848 53.432 102.08 53.432C102.312 53.432 102.508 53.516 102.668 53.684C102.836 53.844 102.92 54.04 102.92 54.272C102.92 54.504 102.836 54.704 102.668 54.872C102.508 55.032 102.312 55.112 102.08 55.112C101.848 55.112 101.648 55.032 101.48 54.872C101.32 54.704 101.24 54.504 101.24 54.272ZM99.5357 61.136H101.624V56.912H99.7517V56.048H102.56V61.136H104.504V62H99.5357V61.136ZM107.675 62H106.739V56.048H107.675V57.056H107.819C108.187 56.272 108.827 55.88 109.739 55.88C110.427 55.88 110.975 56.096 111.383 56.528C111.791 56.952 111.995 57.592 111.995 58.448V62H111.059V58.64C111.059 58.016 110.919 57.548 110.639 57.236C110.359 56.924 109.979 56.768 109.499 56.768C108.931 56.768 108.483 56.964 108.155 57.356C107.835 57.74 107.675 58.256 107.675 58.904V62ZM118.335 56.048H119.271V62H118.335V60.92H118.191C117.999 61.304 117.747 61.608 117.435 61.832C117.123 62.056 116.727 62.168 116.247 62.168C115.919 62.168 115.615 62.112 115.335 62C115.063 61.896 114.827 61.736 114.627 61.52C114.435 61.304 114.283 61.036 114.171 60.716C114.067 60.396 114.015 60.024 114.015 59.6V56.048H114.951V59.48C114.951 60.104 115.079 60.56 115.335 60.848C115.591 61.136 115.983 61.28 116.511 61.28C117.079 61.28 117.523 61.088 117.843 60.704C118.171 60.312 118.335 59.792 118.335 59.144V56.048ZM121.231 56.048H123.103V53.6H124.039V56.048H126.343V56.912H124.039V60.776C124.039 61.016 124.147 61.136 124.363 61.136H126.055V62H124.027C123.755 62 123.531 61.912 123.355 61.736C123.187 61.56 123.103 61.336 123.103 61.064V56.912H121.231V56.048ZM129.466 59.312C129.49 59.904 129.674 60.38 130.018 60.74C130.362 61.1 130.842 61.28 131.458 61.28C131.738 61.28 131.982 61.248 132.19 61.184C132.398 61.12 132.574 61.032 132.718 60.92C132.87 60.808 132.99 60.68 133.078 60.536C133.174 60.384 133.25 60.224 133.306 60.056L134.194 60.296C134.026 60.848 133.714 61.3 133.258 61.652C132.81 61.996 132.202 62.168 131.434 62.168C131.01 62.168 130.618 62.096 130.258 61.952C129.906 61.8 129.602 61.588 129.346 61.316C129.09 61.044 128.89 60.72 128.746 60.344C128.602 59.968 128.53 59.552 128.53 59.096V58.808C128.53 58.392 128.602 58.004 128.746 57.644C128.898 57.284 129.106 56.976 129.37 56.72C129.634 56.456 129.942 56.252 130.294 56.108C130.654 55.956 131.042 55.88 131.458 55.88C131.946 55.88 132.366 55.972 132.718 56.156C133.078 56.332 133.37 56.552 133.594 56.816C133.826 57.08 133.994 57.368 134.098 57.68C134.21 57.992 134.266 58.28 134.266 58.544V59.312H129.466ZM131.458 56.768C131.194 56.768 130.946 56.812 130.714 56.9C130.49 56.98 130.29 57.096 130.114 57.248C129.946 57.4 129.806 57.58 129.694 57.788C129.59 57.988 129.522 58.208 129.49 58.448H133.33C133.314 58.192 133.25 57.96 133.138 57.752C133.034 57.544 132.894 57.368 132.718 57.224C132.55 57.08 132.354 56.968 132.13 56.888C131.914 56.808 131.69 56.768 131.458 56.768ZM137.366 57.584C137.366 57.872 137.486 58.092 137.726 58.244C137.974 58.396 138.422 58.496 139.07 58.544C139.766 58.6 140.294 58.768 140.654 59.048C141.022 59.32 141.206 59.72 141.206 60.248V60.32C141.206 60.608 141.146 60.868 141.026 61.1C140.914 61.324 140.754 61.516 140.546 61.676C140.346 61.836 140.098 61.956 139.802 62.036C139.514 62.124 139.198 62.168 138.854 62.168C138.39 62.168 137.99 62.108 137.654 61.988C137.326 61.86 137.05 61.696 136.826 61.496C136.61 61.288 136.446 61.056 136.334 60.8C136.222 60.536 136.158 60.272 136.142 60.008L137.03 59.792C137.07 60.248 137.246 60.616 137.558 60.896C137.87 61.168 138.286 61.304 138.806 61.304C139.246 61.304 139.598 61.22 139.862 61.052C140.134 60.876 140.27 60.632 140.27 60.32C140.27 59.984 140.138 59.744 139.874 59.6C139.61 59.456 139.182 59.364 138.59 59.324C137.902 59.276 137.374 59.116 137.006 58.844C136.638 58.572 136.454 58.176 136.454 57.656V57.584C136.454 57.304 136.514 57.06 136.634 56.852C136.754 56.636 136.914 56.456 137.114 56.312C137.322 56.168 137.554 56.06 137.81 55.988C138.066 55.916 138.334 55.88 138.614 55.88C139.006 55.88 139.35 55.936 139.646 56.048C139.942 56.152 140.19 56.292 140.39 56.468C140.59 56.636 140.742 56.832 140.846 57.056C140.958 57.28 141.03 57.504 141.062 57.728L140.174 57.944C140.134 57.56 139.978 57.26 139.706 57.044C139.442 56.828 139.094 56.72 138.662 56.72C138.494 56.72 138.33 56.74 138.17 56.78C138.018 56.812 137.882 56.864 137.762 56.936C137.642 57.008 137.546 57.1 137.474 57.212C137.402 57.316 137.366 57.44 137.366 57.584Z" fill="white"/>
<path d="M165.228 27.732C165.228 28.1053 165.153 28.46 165.004 28.796C164.873 29.1133 164.687 29.3933 164.444 29.636C164.201 29.86 163.912 30.0373 163.576 30.168C163.259 30.3173 162.923 30.392 162.568 30.392C162.195 30.392 161.849 30.3173 161.532 30.168C161.215 30.0373 160.935 29.86 160.692 29.636C160.449 29.3933 160.253 29.1133 160.104 28.796C159.973 28.46 159.908 28.1053 159.908 27.732C159.908 27.3587 159.973 27.0133 160.104 26.696C160.253 26.36 160.449 26.08 160.692 25.856C160.935 25.6133 161.215 25.4267 161.532 25.296C161.849 25.1467 162.195 25.072 162.568 25.072C162.923 25.072 163.259 25.1467 163.576 25.296C163.912 25.4267 164.201 25.6133 164.444 25.856C164.687 26.08 164.873 26.36 165.004 26.696C165.153 27.0133 165.228 27.3587 165.228 27.732ZM165.228 18.38C165.228 18.7533 165.153 19.108 165.004 19.444C164.873 19.7613 164.687 20.0413 164.444 20.284C164.201 20.508 163.912 20.6947 163.576 20.844C163.259 20.9747 162.923 21.04 162.568 21.04C162.195 21.04 161.849 20.9747 161.532 20.844C161.215 20.6947 160.935 20.508 160.692 20.284C160.449 20.0413 160.253 19.7613 160.104 19.444C159.973 19.108 159.908 18.7533 159.908 18.38C159.908 18.0067 159.973 17.6613 160.104 17.344C160.253 17.008 160.449 16.728 160.692 16.504C160.935 16.2613 161.215 16.0747 161.532 15.944C161.849 15.7947 162.195 15.72 162.568 15.72C162.923 15.72 163.259 15.7947 163.576 15.944C163.912 16.0747 164.201 16.2613 164.444 16.504C164.687 16.728 164.873 17.008 165.004 17.344C165.153 17.6613 165.228 18.0067 165.228 18.38Z" fill="white"/>
<path d="M184.508 25.144V10.4H202.292V15.188H189.524V22.408H190.208C190.563 21.42 191.221 20.5713 192.184 19.862C193.172 19.1273 194.489 18.76 196.136 18.76C197.377 18.76 198.492 18.9753 199.48 19.406C200.468 19.8367 201.304 20.432 201.988 21.192C202.672 21.952 203.191 22.864 203.546 23.928C203.926 24.992 204.116 26.1573 204.116 27.424V27.652C204.116 28.9947 203.888 30.2613 203.432 31.452C203.001 32.6427 202.355 33.694 201.494 34.606C200.658 35.4927 199.619 36.202 198.378 36.734C197.137 37.266 195.705 37.532 194.084 37.532C192.463 37.532 191.031 37.3167 189.79 36.886C188.549 36.43 187.497 35.8093 186.636 35.024C185.8 34.2133 185.154 33.2633 184.698 32.174C184.267 31.0593 184.052 29.856 184.052 28.564V27.652H189.068V28.108C189.068 29.4507 189.473 30.5653 190.284 31.452C191.12 32.3133 192.336 32.744 193.932 32.744C195.528 32.744 196.782 32.3133 197.694 31.452C198.631 30.5907 199.1 29.4 199.1 27.88C199.1 26.436 198.758 25.3593 198.074 24.65C197.39 23.9153 196.491 23.548 195.376 23.548C194.641 23.548 194.046 23.7127 193.59 24.042C193.134 24.346 192.843 24.7133 192.716 25.144H184.508ZM212.906 29.476C212.906 30.3627 213.222 31.1353 213.856 31.794C214.514 32.4273 215.528 32.744 216.896 32.744C218.264 32.744 219.34 32.3513 220.126 31.566C220.936 30.7553 221.342 29.704 221.342 28.412V24.992H220.658C220.303 25.8787 219.72 26.6007 218.91 27.158C218.099 27.69 216.946 27.956 215.452 27.956C214.312 27.956 213.248 27.7533 212.26 27.348C211.297 26.9173 210.448 26.322 209.714 25.562C209.004 24.802 208.447 23.89 208.042 22.826C207.636 21.762 207.434 20.584 207.434 19.292V18.836C207.434 17.5693 207.662 16.3913 208.118 15.302C208.574 14.1873 209.207 13.2373 210.018 12.452C210.854 11.6413 211.854 11.008 213.02 10.552C214.21 10.096 215.528 9.868 216.972 9.868C218.289 9.868 219.518 10.0833 220.658 10.514C221.823 10.9447 222.824 11.5527 223.66 12.338C224.496 13.098 225.154 14.0227 225.636 15.112C226.117 16.176 226.358 17.354 226.358 18.646V28.336C226.358 29.78 226.117 31.072 225.636 32.212C225.154 33.352 224.496 34.3147 223.66 35.1C222.824 35.8853 221.836 36.4933 220.696 36.924C219.581 37.3293 218.365 37.532 217.048 37.532C215.756 37.532 214.552 37.3547 213.438 37C212.323 36.62 211.348 36.088 210.512 35.404C209.701 34.6947 209.055 33.846 208.574 32.858C208.118 31.87 207.89 30.7427 207.89 29.476H212.906ZM216.896 14.656C215.604 14.656 214.54 15.0487 213.704 15.834C212.868 16.594 212.45 17.62 212.45 18.912C212.45 20.204 212.868 21.2427 213.704 22.028C214.54 22.788 215.604 23.168 216.896 23.168C218.188 23.168 219.252 22.788 220.088 22.028C220.924 21.2427 221.342 20.204 221.342 18.912C221.342 17.62 220.924 16.594 220.088 15.834C219.252 15.0487 218.188 14.656 216.896 14.656Z" fill="white"/>
<path d="M187.652 56.024C187.652 55.752 187.596 55.512 187.484 55.304C187.38 55.096 187.236 54.924 187.052 54.788C186.868 54.652 186.656 54.548 186.416 54.476C186.176 54.404 185.924 54.368 185.66 54.368C185.428 54.368 185.208 54.4 185 54.464C184.792 54.52 184.604 54.604 184.436 54.716C184.276 54.828 184.148 54.968 184.052 55.136C183.956 55.296 183.908 55.484 183.908 55.7V55.772C183.908 56.004 183.956 56.204 184.052 56.372C184.148 56.532 184.288 56.672 184.472 56.792C184.664 56.904 184.9 57 185.18 57.08C185.46 57.152 185.788 57.216 186.164 57.272C187.044 57.408 187.692 57.668 188.108 58.052C188.524 58.428 188.732 58.936 188.732 59.576V59.72C188.732 60.08 188.668 60.412 188.54 60.716C188.42 61.012 188.236 61.268 187.988 61.484C187.748 61.7 187.448 61.868 187.088 61.988C186.728 62.108 186.312 62.168 185.84 62.168C185.304 62.168 184.828 62.092 184.412 61.94C184.004 61.78 183.66 61.564 183.38 61.292C183.108 61.012 182.9 60.688 182.756 60.32C182.612 59.944 182.54 59.536 182.54 59.096V58.736H183.548V59.024C183.548 59.76 183.748 60.312 184.148 60.68C184.556 61.048 185.12 61.232 185.84 61.232C186.464 61.232 186.932 61.096 187.244 60.824C187.564 60.544 187.724 60.176 187.724 59.72V59.648C187.724 59.208 187.56 58.872 187.232 58.64C186.912 58.408 186.388 58.24 185.66 58.136C185.236 58.08 184.852 57.996 184.508 57.884C184.172 57.764 183.884 57.612 183.644 57.428C183.404 57.236 183.22 57.008 183.092 56.744C182.964 56.48 182.9 56.168 182.9 55.808V55.664C182.9 55.336 182.968 55.036 183.104 54.764C183.24 54.492 183.428 54.256 183.668 54.056C183.916 53.856 184.208 53.704 184.544 53.6C184.888 53.488 185.264 53.432 185.672 53.432C186.144 53.432 186.564 53.5 186.932 53.636C187.308 53.772 187.624 53.956 187.88 54.188C188.136 54.412 188.328 54.68 188.456 54.992C188.592 55.296 188.66 55.616 188.66 55.952V56.456H187.652V56.024ZM191.076 59.312C191.1 59.904 191.284 60.38 191.628 60.74C191.972 61.1 192.452 61.28 193.068 61.28C193.348 61.28 193.592 61.248 193.8 61.184C194.008 61.12 194.184 61.032 194.328 60.92C194.48 60.808 194.6 60.68 194.688 60.536C194.784 60.384 194.86 60.224 194.916 60.056L195.804 60.296C195.636 60.848 195.324 61.3 194.868 61.652C194.42 61.996 193.812 62.168 193.044 62.168C192.62 62.168 192.228 62.096 191.868 61.952C191.516 61.8 191.212 61.588 190.956 61.316C190.7 61.044 190.5 60.72 190.356 60.344C190.212 59.968 190.14 59.552 190.14 59.096V58.808C190.14 58.392 190.212 58.004 190.356 57.644C190.508 57.284 190.716 56.976 190.98 56.72C191.244 56.456 191.552 56.252 191.904 56.108C192.264 55.956 192.652 55.88 193.068 55.88C193.556 55.88 193.976 55.972 194.328 56.156C194.688 56.332 194.98 56.552 195.204 56.816C195.436 57.08 195.604 57.368 195.708 57.68C195.82 57.992 195.876 58.28 195.876 58.544V59.312H191.076ZM193.068 56.768C192.804 56.768 192.556 56.812 192.324 56.9C192.1 56.98 191.9 57.096 191.724 57.248C191.556 57.4 191.416 57.58 191.304 57.788C191.2 57.988 191.132 58.208 191.1 58.448H194.94C194.924 58.192 194.86 57.96 194.748 57.752C194.644 57.544 194.504 57.368 194.328 57.224C194.16 57.08 193.964 56.968 193.74 56.888C193.524 56.808 193.3 56.768 193.068 56.768ZM203.307 59.888C203.243 60.216 203.131 60.52 202.971 60.8C202.819 61.08 202.623 61.324 202.383 61.532C202.143 61.732 201.863 61.888 201.543 62C201.223 62.112 200.867 62.168 200.475 62.168C200.059 62.168 199.663 62.1 199.287 61.964C198.919 61.828 198.595 61.632 198.315 61.376C198.035 61.112 197.811 60.792 197.643 60.416C197.483 60.04 197.403 59.608 197.403 59.12V58.976C197.403 58.496 197.483 58.064 197.643 57.68C197.811 57.296 198.035 56.972 198.315 56.708C198.595 56.444 198.919 56.24 199.287 56.096C199.663 55.952 200.059 55.88 200.475 55.88C200.851 55.88 201.199 55.936 201.519 56.048C201.839 56.16 202.119 56.32 202.359 56.528C202.607 56.728 202.807 56.968 202.959 57.248C203.119 57.528 203.227 57.832 203.283 58.16L202.347 58.376C202.323 58.168 202.263 57.968 202.167 57.776C202.079 57.576 201.955 57.404 201.795 57.26C201.643 57.108 201.455 56.988 201.231 56.9C201.007 56.812 200.747 56.768 200.451 56.768C200.163 56.768 199.891 56.824 199.635 56.936C199.387 57.04 199.167 57.192 198.975 57.392C198.783 57.584 198.631 57.816 198.519 58.088C198.415 58.36 198.363 58.656 198.363 58.976V59.12C198.363 59.456 198.415 59.76 198.519 60.032C198.631 60.296 198.783 60.52 198.975 60.704C199.167 60.888 199.391 61.032 199.647 61.136C199.903 61.232 200.179 61.28 200.475 61.28C200.771 61.28 201.027 61.236 201.243 61.148C201.467 61.052 201.655 60.932 201.807 60.788C201.967 60.636 202.091 60.464 202.179 60.272C202.275 60.08 202.339 59.88 202.371 59.672L203.307 59.888ZM210.703 59.096C210.703 59.592 210.619 60.032 210.451 60.416C210.291 60.792 210.075 61.112 209.803 61.376C209.531 61.632 209.211 61.828 208.843 61.964C208.483 62.1 208.107 62.168 207.715 62.168C207.315 62.168 206.935 62.1 206.575 61.964C206.215 61.828 205.899 61.632 205.627 61.376C205.355 61.112 205.135 60.792 204.967 60.416C204.807 60.032 204.727 59.592 204.727 59.096V58.952C204.727 58.464 204.807 58.032 204.967 57.656C205.135 57.272 205.355 56.948 205.627 56.684C205.907 56.42 206.227 56.22 206.587 56.084C206.947 55.948 207.323 55.88 207.715 55.88C208.107 55.88 208.483 55.948 208.843 56.084C209.203 56.22 209.519 56.42 209.791 56.684C210.071 56.948 210.291 57.272 210.451 57.656C210.619 58.032 210.703 58.464 210.703 58.952V59.096ZM207.715 61.28C208.003 61.28 208.267 61.232 208.507 61.136C208.755 61.032 208.971 60.884 209.155 60.692C209.339 60.5 209.483 60.272 209.587 60.008C209.691 59.736 209.743 59.432 209.743 59.096V58.952C209.743 58.632 209.691 58.34 209.587 58.076C209.483 57.804 209.339 57.572 209.155 57.38C208.971 57.188 208.755 57.04 208.507 56.936C208.259 56.824 207.995 56.768 207.715 56.768C207.435 56.768 207.171 56.824 206.923 56.936C206.675 57.04 206.459 57.188 206.275 57.38C206.091 57.572 205.947 57.804 205.843 58.076C205.739 58.34 205.687 58.632 205.687 58.952V59.096C205.687 59.432 205.739 59.736 205.843 60.008C205.947 60.272 206.091 60.5 206.275 60.692C206.459 60.884 206.671 61.032 206.911 61.136C207.159 61.232 207.427 61.28 207.715 61.28ZM213.371 62H212.435V56.048H213.371V57.056H213.515C213.883 56.272 214.523 55.88 215.435 55.88C216.123 55.88 216.671 56.096 217.079 56.528C217.487 56.952 217.691 57.592 217.691 58.448V62H216.755V58.64C216.755 58.016 216.615 57.548 216.335 57.236C216.055 56.924 215.675 56.768 215.195 56.768C214.627 56.768 214.179 56.964 213.851 57.356C213.531 57.74 213.371 58.256 213.371 58.904V62ZM224.39 61.088H224.246C224.15 61.272 224.026 61.432 223.874 61.568C223.73 61.704 223.57 61.816 223.394 61.904C223.226 61.992 223.046 62.056 222.854 62.096C222.662 62.144 222.478 62.168 222.302 62.168C221.902 62.168 221.53 62.1 221.186 61.964C220.842 61.828 220.538 61.632 220.274 61.376C220.018 61.12 219.814 60.804 219.662 60.428C219.518 60.044 219.446 59.608 219.446 59.12V58.928C219.446 58.448 219.522 58.02 219.674 57.644C219.826 57.26 220.03 56.94 220.286 56.684C220.542 56.42 220.842 56.22 221.186 56.084C221.53 55.948 221.894 55.88 222.278 55.88C222.686 55.88 223.066 55.972 223.418 56.156C223.778 56.332 224.054 56.608 224.246 56.984H224.39V53.6H225.326V62H224.39V61.088ZM222.398 61.28C222.678 61.28 222.938 61.228 223.178 61.124C223.418 61.02 223.626 60.872 223.802 60.68C223.986 60.488 224.13 60.26 224.234 59.996C224.338 59.724 224.39 59.424 224.39 59.096V58.952C224.39 58.632 224.338 58.34 224.234 58.076C224.13 57.804 223.986 57.572 223.802 57.38C223.626 57.188 223.414 57.04 223.166 56.936C222.926 56.824 222.67 56.768 222.398 56.768C222.118 56.768 221.854 56.82 221.606 56.924C221.366 57.028 221.154 57.176 220.97 57.368C220.794 57.56 220.654 57.788 220.55 58.052C220.454 58.316 220.406 58.608 220.406 58.928V59.12C220.406 59.456 220.454 59.756 220.55 60.02C220.654 60.284 220.794 60.512 220.97 60.704C221.154 60.888 221.366 61.032 221.606 61.136C221.846 61.232 222.11 61.28 222.398 61.28ZM228.366 57.584C228.366 57.872 228.486 58.092 228.726 58.244C228.974 58.396 229.422 58.496 230.07 58.544C230.766 58.6 231.294 58.768 231.654 59.048C232.022 59.32 232.206 59.72 232.206 60.248V60.32C232.206 60.608 232.146 60.868 232.026 61.1C231.914 61.324 231.754 61.516 231.546 61.676C231.346 61.836 231.098 61.956 230.802 62.036C230.514 62.124 230.198 62.168 229.854 62.168C229.39 62.168 228.99 62.108 228.654 61.988C228.326 61.86 228.05 61.696 227.826 61.496C227.61 61.288 227.446 61.056 227.334 60.8C227.222 60.536 227.158 60.272 227.142 60.008L228.03 59.792C228.07 60.248 228.246 60.616 228.558 60.896C228.87 61.168 229.286 61.304 229.806 61.304C230.246 61.304 230.598 61.22 230.862 61.052C231.134 60.876 231.27 60.632 231.27 60.32C231.27 59.984 231.138 59.744 230.874 59.6C230.61 59.456 230.182 59.364 229.59 59.324C228.902 59.276 228.374 59.116 228.006 58.844C227.638 58.572 227.454 58.176 227.454 57.656V57.584C227.454 57.304 227.514 57.06 227.634 56.852C227.754 56.636 227.914 56.456 228.114 56.312C228.322 56.168 228.554 56.06 228.81 55.988C229.066 55.916 229.334 55.88 229.614 55.88C230.006 55.88 230.35 55.936 230.646 56.048C230.942 56.152 231.19 56.292 231.39 56.468C231.59 56.636 231.742 56.832 231.846 57.056C231.958 57.28 232.03 57.504 232.062 57.728L231.174 57.944C231.134 57.56 230.978 57.26 230.706 57.044C230.442 56.828 230.094 56.72 229.662 56.72C229.494 56.72 229.33 56.74 229.17 56.78C229.018 56.812 228.882 56.864 228.762 56.936C228.642 57.008 228.546 57.1 228.474 57.212C228.402 57.316 228.366 57.44 228.366 57.584Z" fill="white"/>
</svg>
